<mxfile host="Electron" agent="Mozilla/5.0 (X11; Linux x86_64) AppleWebKit/537.36 (KHTML, like Gecko) draw.io/25.0.2 Chrome/128.0.6613.186 Electron/32.2.5 Safari/537.36" version="25.0.2">
  <diagram name="PÃ¡gina-1" id="GZ-RfXRdyXWwGicrrdv8">
    <mxGraphModel dx="1434" dy="835" grid="1" gridSize="10" guides="1" tooltips="1" connect="1" arrows="1" fold="1" page="1" pageScale="1" pageWidth="1654" pageHeight="1169" math="0" shadow="0">
      <root>
        <mxCell id="0" />
        <mxCell id="1" parent="0" />
        <mxCell id="8IY0u4yO5Yo8Mi12hmBT-100" value="" style="endArrow=none;html=1;rounded=0;spacing=0;jumpSize=6;startSize=6;endSize=6;" parent="1" target="8IY0u4yO5Yo8Mi12hmBT-97" edge="1">
          <mxGeometry width="50" height="50" relative="1" as="geometry">
            <mxPoint x="708.5" y="807.5" as="sourcePoint" />
            <mxPoint x="708.5" y="767.5" as="targetPoint" />
          </mxGeometry>
        </mxCell>
        <mxCell id="8IY0u4yO5Yo8Mi12hmBT-1" value="INTERNET" style="ellipse;shape=cloud;whiteSpace=wrap;html=1;fillColor=none;" parent="1" vertex="1">
          <mxGeometry x="510" width="180" height="110" as="geometry" />
        </mxCell>
        <mxCell id="8IY0u4yO5Yo8Mi12hmBT-4" value="Ciudadano" style="shape=umlActor;verticalLabelPosition=bottom;verticalAlign=top;html=1;outlineConnect=0;fillColor=none;" parent="1" vertex="1">
          <mxGeometry x="850" y="25" width="30" height="60" as="geometry" />
        </mxCell>
        <mxCell id="8IY0u4yO5Yo8Mi12hmBT-7" value="" style="endArrow=none;html=1;rounded=0;" parent="1" edge="1">
          <mxGeometry width="50" height="50" relative="1" as="geometry">
            <mxPoint x="676" y="60" as="sourcePoint" />
            <mxPoint x="860" y="60" as="targetPoint" />
          </mxGeometry>
        </mxCell>
        <mxCell id="8IY0u4yO5Yo8Mi12hmBT-14" value="" style="group" parent="1" vertex="1" connectable="0">
          <mxGeometry x="566" y="104" width="69" height="116" as="geometry" />
        </mxCell>
        <mxCell id="8IY0u4yO5Yo8Mi12hmBT-13" value="" style="endArrow=none;html=1;rounded=0;" parent="8IY0u4yO5Yo8Mi12hmBT-14" edge="1">
          <mxGeometry width="50" height="50" relative="1" as="geometry">
            <mxPoint x="33" y="1136" as="sourcePoint" />
            <mxPoint x="33" as="targetPoint" />
          </mxGeometry>
        </mxCell>
        <mxCell id="8IY0u4yO5Yo8Mi12hmBT-12" value="" style="group;fillColor=none;" parent="8IY0u4yO5Yo8Mi12hmBT-14" vertex="1" connectable="0">
          <mxGeometry y="26" width="64" height="70" as="geometry" />
        </mxCell>
        <mxCell id="8IY0u4yO5Yo8Mi12hmBT-8" value="" style="rounded=0;whiteSpace=wrap;html=1;fillColor=none;" parent="8IY0u4yO5Yo8Mi12hmBT-12" vertex="1">
          <mxGeometry x="14" width="40" height="70" as="geometry" />
        </mxCell>
        <mxCell id="8IY0u4yO5Yo8Mi12hmBT-20" value="" style="sketch=0;points=[[0.5,0,0],[1,0.5,0],[0.5,1,0],[0,0.5,0],[0.145,0.145,0],[0.8555,0.145,0],[0.855,0.8555,0],[0.145,0.855,0]];verticalLabelPosition=bottom;html=1;verticalAlign=top;aspect=fixed;align=center;pointerEvents=1;shape=mxgraph.cisco19.rect;prIcon=router;fillColor=#FAFAFA;strokeColor=#005073;" parent="8IY0u4yO5Yo8Mi12hmBT-12" vertex="1">
          <mxGeometry y="20" width="30" height="30" as="geometry" />
        </mxCell>
        <mxCell id="8IY0u4yO5Yo8Mi12hmBT-21" value="" style="sketch=0;points=[[0.5,0,0],[1,0.5,0],[0.5,1,0],[0,0.5,0],[0.145,0.145,0],[0.8555,0.145,0],[0.855,0.8555,0],[0.145,0.855,0]];verticalLabelPosition=bottom;html=1;verticalAlign=top;aspect=fixed;align=center;pointerEvents=1;shape=mxgraph.cisco19.rect;prIcon=router;fillColor=#FAFAFA;strokeColor=#005073;" parent="8IY0u4yO5Yo8Mi12hmBT-14" vertex="1">
          <mxGeometry x="39" y="46" width="30" height="30" as="geometry" />
        </mxCell>
        <mxCell id="8IY0u4yO5Yo8Mi12hmBT-15" value="" style="group" parent="1" vertex="1" connectable="0">
          <mxGeometry x="583" y="218" width="30" height="40" as="geometry" />
        </mxCell>
        <mxCell id="8IY0u4yO5Yo8Mi12hmBT-16" value="" style="verticalLabelPosition=bottom;sketch=0;aspect=fixed;html=1;verticalAlign=top;strokeColor=none;align=center;outlineConnect=0;shape=mxgraph.citrix.firewall;" parent="8IY0u4yO5Yo8Mi12hmBT-15" vertex="1">
          <mxGeometry width="22.901088499763375" height="28.395646000946527" as="geometry" />
        </mxCell>
        <mxCell id="8IY0u4yO5Yo8Mi12hmBT-17" value="" style="verticalLabelPosition=bottom;sketch=0;aspect=fixed;html=1;verticalAlign=top;strokeColor=none;align=center;outlineConnect=0;shape=mxgraph.citrix.firewall;" parent="8IY0u4yO5Yo8Mi12hmBT-15" vertex="1">
          <mxGeometry x="7.098911500236632" y="8" width="22.901088499763375" height="28.395646000946527" as="geometry" />
        </mxCell>
        <mxCell id="8IY0u4yO5Yo8Mi12hmBT-23" value="&lt;div&gt;Doble&lt;/div&gt;Router&lt;br&gt;VRRP" style="text;html=1;align=center;verticalAlign=middle;whiteSpace=wrap;rounded=0;" parent="1" vertex="1">
          <mxGeometry x="510" y="130" width="60" height="30" as="geometry" />
        </mxCell>
        <mxCell id="8IY0u4yO5Yo8Mi12hmBT-24" value="FW&amp;nbsp; UTM&lt;div&gt;externo&lt;/div&gt;" style="text;html=1;align=center;verticalAlign=middle;whiteSpace=wrap;rounded=0;" parent="1" vertex="1">
          <mxGeometry x="516" y="218" width="60" height="30" as="geometry" />
        </mxCell>
        <mxCell id="8IY0u4yO5Yo8Mi12hmBT-25" value="" style="group" parent="1" vertex="1" connectable="0">
          <mxGeometry x="585" y="637" width="30" height="40" as="geometry" />
        </mxCell>
        <mxCell id="8IY0u4yO5Yo8Mi12hmBT-26" value="" style="verticalLabelPosition=bottom;sketch=0;aspect=fixed;html=1;verticalAlign=top;strokeColor=none;align=center;outlineConnect=0;shape=mxgraph.citrix.firewall;" parent="8IY0u4yO5Yo8Mi12hmBT-25" vertex="1">
          <mxGeometry width="22.901088499763375" height="28.395646000946527" as="geometry" />
        </mxCell>
        <mxCell id="8IY0u4yO5Yo8Mi12hmBT-27" value="" style="verticalLabelPosition=bottom;sketch=0;aspect=fixed;html=1;verticalAlign=top;strokeColor=none;align=center;outlineConnect=0;shape=mxgraph.citrix.firewall;" parent="8IY0u4yO5Yo8Mi12hmBT-25" vertex="1">
          <mxGeometry x="7.098911500236632" y="8" width="22.901088499763375" height="28.395646000946527" as="geometry" />
        </mxCell>
        <mxCell id="8IY0u4yO5Yo8Mi12hmBT-32" value="" style="group" parent="1" vertex="1" connectable="0">
          <mxGeometry x="760" y="240" width="40" height="65" as="geometry" />
        </mxCell>
        <mxCell id="8IY0u4yO5Yo8Mi12hmBT-31" value="" style="endArrow=none;html=1;rounded=0;" parent="8IY0u4yO5Yo8Mi12hmBT-32" edge="1">
          <mxGeometry width="50" height="50" relative="1" as="geometry">
            <mxPoint x="19" y="30" as="sourcePoint" />
            <mxPoint x="19" as="targetPoint" />
          </mxGeometry>
        </mxCell>
        <mxCell id="8IY0u4yO5Yo8Mi12hmBT-29" value="Externo" style="image;aspect=fixed;html=1;points=[];align=center;fontSize=12;image=img/lib/azure2/networking/DNS_Zones.svg;" parent="8IY0u4yO5Yo8Mi12hmBT-32" vertex="1">
          <mxGeometry x="1" y="25" width="40" height="40" as="geometry" />
        </mxCell>
        <mxCell id="8IY0u4yO5Yo8Mi12hmBT-36" value="" style="group" parent="1" vertex="1" connectable="0">
          <mxGeometry x="993" y="240" width="42" height="70" as="geometry" />
        </mxCell>
        <mxCell id="8IY0u4yO5Yo8Mi12hmBT-35" value="" style="endArrow=none;html=1;rounded=0;" parent="8IY0u4yO5Yo8Mi12hmBT-36" edge="1">
          <mxGeometry width="50" height="50" relative="1" as="geometry">
            <mxPoint x="21" y="30" as="sourcePoint" />
            <mxPoint x="21" as="targetPoint" />
          </mxGeometry>
        </mxCell>
        <mxCell id="8IY0u4yO5Yo8Mi12hmBT-33" value="API Gateway" style="sketch=0;html=1;verticalAlign=top;labelPosition=center;verticalLabelPosition=bottom;align=center;spacingTop=-6;fontSize=11;fontStyle=1;fontColor=#999999;shape=image;aspect=fixed;imageAspect=0;image=data:image/svg+xml,PHN2ZyB4bWxucz0iaHR0cDovL3d3dy53My5vcmcvMjAwMC9zdmciIGhlaWdodD0iMzY3LjgxODMyODg1NzQyMTkiIHZpZXdCb3g9IjcuMTA1NDI3MzU3NjAxMDAyZS0xNSAwIDM2Ni40MTAxODY3Njc1NzgxIDM2Ny44MTgzMjg4NTc0MjE5IiBwcmVzZXJ2ZUFzcGVjdFJhdGlvPSJ4TWlkWU1pZCBtZWV0IiB3aWR0aD0iMzY2LjQxMDE5Njc2NzU3OTEiIHZlcnNpb249IjEuMSIgaWQ9InN2Zzk4NyIgem9vbUFuZFBhbj0ibWFnbmlmeSI+JiN4YTsgIDxwYXRoIGQ9Im0gNDguMjUxOTYsMTExLjUzOTA2IGMgLTcuNjE4NjQsMmUtNCAtMTMuNzk0NzIsNi4xNzYyOCAtMTMuNzk0OTMsMTMuNzk0OTIgMi4xZS00LDcuNjE4NjQgNi4xNzYyOSwxMy43OTQ3MiAxMy43OTQ5MywxMy43OTQ5MiBoIDE0NS4xNDY5MiB2IC0yNy41ODk4NCB6IG0gMjM4LjYwODU5LDU3LjQ1MTE3IGggNjUuNzU0NjkgYyA3LjYxODY0LC0yLjFlLTQgMTMuNzk0NzEsLTYuMTc2MjggMTMuNzk0OTIsLTEzLjc5NDkyIC0yLjFlLTQsLTcuNjE4NjQgLTYuMTc2MjgsLTEzLjc5NDcxIC0xMy43OTQ5MiwtMTMuNzk0OTIgSCAyODQuODUwNiBaIE0gMTMuNzk0OTIsMTcwLjk3NDYxIEMgNi4xNzYyODAxLDE3MC45NzQ4MiAyLjEwMDkxOWUtNCwxNzcuMTUwODkgOS4xODk5MjFlLTgsMTg0Ljc2OTUzIC04LjY5OTA4MWUtNCwxOTIuMzg4OTMgNi4xNzU1MjAxLDE5OC41NjYxOSAxMy43OTQ5MiwxOTguNTY2NCBIIDE5My4zOTg4OCBWIDE3MC45NzQ2MSBaIE0gMjg0LjMwNzgsMjI3LjU2NjQgaCA2OC4zMDc0NCBjIDcuNjE4NjQsLTIuMWUtNCAxMy43OTQ3MSwtNi4xNzYyOCAxMy43OTQ5MiwtMTMuNzk0OTIgLTIuMWUtNCwtNy42MTg2NCAtNi4xNzYyOCwtMTMuNzk0NzEgLTEzLjc5NDkyLC0xMy43OTQ5MiBoIC02NS45MjE3OCB6IG0gLTIzNi4wNTU4NCwxLjY5NzI3IGMgLTcuNjE4NjQsMmUtNCAtMTMuNzk0NzIsNi4xNzYyOCAtMTMuNzk0OTMsMTMuNzk0OTIgMi4xZS00LDcuNjE4NjQgNi4xNzYyOSwxMy43OTQ3MiAxMy43OTQ5MywxMy43OTQ5MiBIIDE5My4zOTg4OCBWIDIyOS4yNjM2NyBaIE0gMTg5LjUyMTQ5LDAgYyAtMjQuNTc0MTEsMCAtNDkuMTY3MzcsMjAuMDU1MDcgLTU5LjQzNzUsNzUuMzczMDQgaCAzMC41ODAwNyBjIDQuNjE2MzMsLTI0LjE2MjA2IDE1LjM0ODk2LC00Ny41MjE0OCAyNy44NTM1MiwtNDcuNTIxNDggMTIuMTU4OCwwIDM5LjQ1ODk4LDU3LjQ1MDQ0IDM5LjQ1ODk4LDE2MC40MTQwNiAwLDY5LjkxNTEzIC0xOS41NzgwOSwxNTIuMTE1MjQgLTQxLjE3MTg3LDE1Mi4xMTUyMyAtMTUuMjY4ODEsMmUtNSAtMjEuMjE2NjgsLTI4LjMzMzU2IC0yNS40NDMzNiwtNDYuNzE4NzQgbCAtMzAuNDE0MDYsLTAuMDY4NCBjIDQuMjIwNzQsMjAuNTQwODcgMTYuOTA3NjgsNzQuMjI0NiA1Ny43MTI4OSw3NC4yMjQ2IDUzLjQzNjcyLDAgNjguOTEyMTEsLTExMS45OTMwNSA2OC45MTIxMSwtMTgwLjQ2Mjg5IEMgMjU3LjU3MjI3LDkzLjgwMDc2IDIzNi41ODM0LDAgMTg5LjUyMTQ5LDAgWiIgc3R5bGU9ImNvbG9yOiMwMDAwMDA7b3BhY2l0eToxO2ZpbGw6IzQyODVmNDtmaWxsLW9wYWNpdHk6MTtzdHJva2UtbGluZWNhcDpyb3VuZDstaW5rc2NhcGUtc3Ryb2tlOm5vbmUiLz4mI3hhOzwvc3ZnPg==;" parent="8IY0u4yO5Yo8Mi12hmBT-36" vertex="1">
          <mxGeometry x="1" y="28" width="42" height="42" as="geometry" />
        </mxCell>
        <mxCell id="8IY0u4yO5Yo8Mi12hmBT-39" value="" style="group" parent="1" vertex="1" connectable="0">
          <mxGeometry x="630" y="241" width="70" height="79" as="geometry" />
        </mxCell>
        <mxCell id="8IY0u4yO5Yo8Mi12hmBT-38" value="" style="endArrow=none;html=1;rounded=0;" parent="8IY0u4yO5Yo8Mi12hmBT-39" edge="1">
          <mxGeometry width="50" height="50" relative="1" as="geometry">
            <mxPoint x="35" y="34.34782608695652" as="sourcePoint" />
            <mxPoint x="35" as="targetPoint" />
          </mxGeometry>
        </mxCell>
        <mxCell id="8IY0u4yO5Yo8Mi12hmBT-37" value="Sonda&lt;br&gt;SATinet&lt;br&gt;(IDS)" style="rounded=0;whiteSpace=wrap;html=1;" parent="8IY0u4yO5Yo8Mi12hmBT-39" vertex="1">
          <mxGeometry y="33.20289855072464" width="70" height="45.79710144927536" as="geometry" />
        </mxCell>
        <mxCell id="8IY0u4yO5Yo8Mi12hmBT-53" value="" style="group" parent="1" vertex="1" connectable="0">
          <mxGeometry x="798" y="147" width="60" height="93" as="geometry" />
        </mxCell>
        <mxCell id="8IY0u4yO5Yo8Mi12hmBT-50" value="" style="group" parent="8IY0u4yO5Yo8Mi12hmBT-53" vertex="1" connectable="0">
          <mxGeometry x="18.450000000000045" y="30" width="36.549999999999955" height="63" as="geometry" />
        </mxCell>
        <mxCell id="8IY0u4yO5Yo8Mi12hmBT-49" value="" style="endArrow=none;html=1;rounded=0;" parent="8IY0u4yO5Yo8Mi12hmBT-50" edge="1">
          <mxGeometry width="50" height="50" relative="1" as="geometry">
            <mxPoint x="15" y="63" as="sourcePoint" />
            <mxPoint x="15" y="33" as="targetPoint" />
          </mxGeometry>
        </mxCell>
        <mxCell id="8IY0u4yO5Yo8Mi12hmBT-47" value="" style="verticalLabelPosition=bottom;sketch=0;aspect=fixed;html=1;verticalAlign=top;strokeColor=none;align=center;outlineConnect=0;shape=mxgraph.citrix.proxy_server;" parent="8IY0u4yO5Yo8Mi12hmBT-50" vertex="1">
          <mxGeometry width="36.55" height="43" as="geometry" />
        </mxCell>
        <mxCell id="8IY0u4yO5Yo8Mi12hmBT-51" value="Servidor Proxy" style="text;html=1;align=center;verticalAlign=middle;whiteSpace=wrap;rounded=0;" parent="8IY0u4yO5Yo8Mi12hmBT-53" vertex="1">
          <mxGeometry width="60" height="30" as="geometry" />
        </mxCell>
        <mxCell id="8IY0u4yO5Yo8Mi12hmBT-63" value="Balanceador" style="text;html=1;align=center;verticalAlign=middle;whiteSpace=wrap;rounded=0;" parent="1" vertex="1">
          <mxGeometry x="903" y="327" width="60" height="30" as="geometry" />
        </mxCell>
        <mxCell id="8IY0u4yO5Yo8Mi12hmBT-69" value="FW&amp;nbsp; UTM&lt;div&gt;interno&lt;br&gt;+&lt;br&gt;IPS&lt;/div&gt;" style="text;html=1;align=center;verticalAlign=middle;whiteSpace=wrap;rounded=0;" parent="1" vertex="1">
          <mxGeometry x="532" y="609" width="60" height="30" as="geometry" />
        </mxCell>
        <mxCell id="8IY0u4yO5Yo8Mi12hmBT-71" value="" style="group" parent="1" vertex="1" connectable="0">
          <mxGeometry x="895" y="141" width="60" height="100" as="geometry" />
        </mxCell>
        <mxCell id="8IY0u4yO5Yo8Mi12hmBT-67" value="" style="group" parent="8IY0u4yO5Yo8Mi12hmBT-71" vertex="1" connectable="0">
          <mxGeometry x="10" y="37" width="40" height="63" as="geometry" />
        </mxCell>
        <mxCell id="8IY0u4yO5Yo8Mi12hmBT-66" value="" style="endArrow=none;html=1;rounded=0;" parent="8IY0u4yO5Yo8Mi12hmBT-67" edge="1">
          <mxGeometry width="50" height="50" relative="1" as="geometry">
            <mxPoint x="17" y="63" as="sourcePoint" />
            <mxPoint x="17" y="33" as="targetPoint" />
          </mxGeometry>
        </mxCell>
        <mxCell id="8IY0u4yO5Yo8Mi12hmBT-65" value="" style="sketch=0;pointerEvents=1;shadow=0;dashed=0;html=1;strokeColor=none;fillColor=#505050;labelPosition=center;verticalLabelPosition=bottom;verticalAlign=top;outlineConnect=0;align=center;shape=mxgraph.office.servers.3rd_party_mail_server;" parent="8IY0u4yO5Yo8Mi12hmBT-67" vertex="1">
          <mxGeometry width="40" height="45" as="geometry" />
        </mxCell>
        <mxCell id="8IY0u4yO5Yo8Mi12hmBT-68" value="Servidor Correo" style="text;html=1;align=center;verticalAlign=middle;whiteSpace=wrap;rounded=0;" parent="8IY0u4yO5Yo8Mi12hmBT-71" vertex="1">
          <mxGeometry width="60" height="30" as="geometry" />
        </mxCell>
        <mxCell id="8IY0u4yO5Yo8Mi12hmBT-74" value="" style="group" parent="1" vertex="1" connectable="0">
          <mxGeometry x="721" y="180" width="40" height="60" as="geometry" />
        </mxCell>
        <mxCell id="8IY0u4yO5Yo8Mi12hmBT-19" value="" style="endArrow=none;html=1;rounded=0;" parent="8IY0u4yO5Yo8Mi12hmBT-74" edge="1">
          <mxGeometry width="50" height="50" relative="1" as="geometry">
            <mxPoint x="19" y="61" as="sourcePoint" />
            <mxPoint x="19" y="31" as="targetPoint" />
          </mxGeometry>
        </mxCell>
        <mxCell id="8IY0u4yO5Yo8Mi12hmBT-28" value="" style="html=1;strokeWidth=1;shadow=0;dashed=0;shape=mxgraph.ios7.misc.vpn;fillColor=#007AFF;strokeColor=none;buttonText=;strokeColor2=#222222;fontColor=#222222;fontSize=8;verticalLabelPosition=bottom;verticalAlign=top;align=center;sketch=0;" parent="8IY0u4yO5Yo8Mi12hmBT-74" vertex="1">
          <mxGeometry width="40" height="30" as="geometry" />
        </mxCell>
        <mxCell id="8IY0u4yO5Yo8Mi12hmBT-75" value="Terminador TÃºnel VPN" style="text;html=1;align=center;verticalAlign=middle;whiteSpace=wrap;rounded=0;" parent="1" vertex="1">
          <mxGeometry x="711" y="147" width="60" height="30" as="geometry" />
        </mxCell>
        <mxCell id="8IY0u4yO5Yo8Mi12hmBT-56" value="" style="endArrow=none;html=1;rounded=0;exitX=0.5;exitY=0;exitDx=0;exitDy=0;exitPerimeter=0;" parent="1" source="vx4SSV7gI0Ox7AA9ZbCn-1" edge="1">
          <mxGeometry width="50" height="50" relative="1" as="geometry">
            <mxPoint x="879" y="270" as="sourcePoint" />
            <mxPoint x="879" y="240" as="targetPoint" />
          </mxGeometry>
        </mxCell>
        <mxCell id="8IY0u4yO5Yo8Mi12hmBT-44" value="Servidores Web" style="text;html=1;align=center;verticalAlign=middle;whiteSpace=wrap;rounded=0;" parent="1" vertex="1">
          <mxGeometry x="847.5" y="446" width="60" height="30" as="geometry" />
        </mxCell>
        <mxCell id="8IY0u4yO5Yo8Mi12hmBT-41" value="" style="endArrow=none;html=1;rounded=0;" parent="1" edge="1">
          <mxGeometry width="50" height="50" relative="1" as="geometry">
            <mxPoint x="877.5" y="395" as="sourcePoint" />
            <mxPoint x="877.5" y="365" as="targetPoint" />
          </mxGeometry>
        </mxCell>
        <mxCell id="8IY0u4yO5Yo8Mi12hmBT-48" value="" style="verticalLabelPosition=bottom;sketch=0;aspect=fixed;html=1;verticalAlign=top;strokeColor=none;align=center;outlineConnect=0;shape=mxgraph.citrix.web_server;" parent="1" vertex="1">
          <mxGeometry x="860" y="392" width="37.4" height="44" as="geometry" />
        </mxCell>
        <mxCell id="8IY0u4yO5Yo8Mi12hmBT-77" value="" style="group" parent="1" vertex="1" connectable="0">
          <mxGeometry x="614" y="224" width="466" height="30" as="geometry" />
        </mxCell>
        <mxCell id="8IY0u4yO5Yo8Mi12hmBT-18" value="" style="endArrow=none;html=1;rounded=0;" parent="8IY0u4yO5Yo8Mi12hmBT-77" edge="1">
          <mxGeometry width="50" height="50" relative="1" as="geometry">
            <mxPoint y="16" as="sourcePoint" />
            <mxPoint x="400" y="16" as="targetPoint" />
          </mxGeometry>
        </mxCell>
        <mxCell id="8IY0u4yO5Yo8Mi12hmBT-54" value="&lt;b&gt;&lt;font style=&quot;font-size: 18px;&quot;&gt;DMZ&lt;/font&gt;&lt;/b&gt;" style="text;html=1;align=center;verticalAlign=middle;whiteSpace=wrap;rounded=0;" parent="8IY0u4yO5Yo8Mi12hmBT-77" vertex="1">
          <mxGeometry x="406" width="60" height="30" as="geometry" />
        </mxCell>
        <mxCell id="8IY0u4yO5Yo8Mi12hmBT-91" value="" style="group" parent="1" vertex="1" connectable="0">
          <mxGeometry x="599" y="931.5" width="466" height="30" as="geometry" />
        </mxCell>
        <mxCell id="8IY0u4yO5Yo8Mi12hmBT-92" value="" style="endArrow=none;html=1;rounded=0;entryX=0;entryY=0.5;entryDx=0;entryDy=0;spacing=2;" parent="8IY0u4yO5Yo8Mi12hmBT-91" target="8IY0u4yO5Yo8Mi12hmBT-93" edge="1">
          <mxGeometry width="50" height="50" relative="1" as="geometry">
            <mxPoint y="16" as="sourcePoint" />
            <mxPoint x="400" y="16" as="targetPoint" />
          </mxGeometry>
        </mxCell>
        <mxCell id="8IY0u4yO5Yo8Mi12hmBT-93" value="&lt;span style=&quot;font-size: 18px;&quot;&gt;&lt;b&gt;VLAN MONITORIAZACIÃN&lt;/b&gt;&lt;/span&gt;" style="text;html=1;align=left;verticalAlign=middle;whiteSpace=wrap;rounded=0;" parent="8IY0u4yO5Yo8Mi12hmBT-91" vertex="1">
          <mxGeometry x="421" width="60" height="30" as="geometry" />
        </mxCell>
        <mxCell id="8IY0u4yO5Yo8Mi12hmBT-101" value="" style="endArrow=none;html=1;rounded=0;spacing=0;jumpSize=6;startSize=6;endSize=6;" parent="8IY0u4yO5Yo8Mi12hmBT-91" edge="1">
          <mxGeometry width="50" height="50" relative="1" as="geometry">
            <mxPoint x="101" y="15" as="sourcePoint" />
            <mxPoint x="101.5" y="-13" as="targetPoint" />
          </mxGeometry>
        </mxCell>
        <mxCell id="8IY0u4yO5Yo8Mi12hmBT-102" value="" style="endArrow=none;html=1;rounded=0;spacing=0;jumpSize=6;startSize=6;endSize=6;" parent="8IY0u4yO5Yo8Mi12hmBT-91" edge="1">
          <mxGeometry width="50" height="50" relative="1" as="geometry">
            <mxPoint x="229" y="15" as="sourcePoint" />
            <mxPoint x="229.5" y="-13" as="targetPoint" />
          </mxGeometry>
        </mxCell>
        <mxCell id="-2rO3qXE_l6Us7GNqE2k-3" value="" style="endArrow=none;html=1;rounded=0;spacing=0;jumpSize=6;startSize=6;endSize=6;" parent="8IY0u4yO5Yo8Mi12hmBT-91" edge="1">
          <mxGeometry width="50" height="50" relative="1" as="geometry">
            <mxPoint x="331" y="15" as="sourcePoint" />
            <mxPoint x="331.5" y="-13" as="targetPoint" />
          </mxGeometry>
        </mxCell>
        <mxCell id="8IY0u4yO5Yo8Mi12hmBT-95" value="" style="group" parent="1" vertex="1" connectable="0">
          <mxGeometry x="890.4000000000001" y="580" width="28" height="79" as="geometry" />
        </mxCell>
        <mxCell id="8IY0u4yO5Yo8Mi12hmBT-90" value="" style="endArrow=none;html=1;rounded=0;entryX=0.5;entryY=1;entryDx=0;entryDy=0;entryPerimeter=0;spacing=0;jumpSize=6;startSize=6;endSize=6;" parent="8IY0u4yO5Yo8Mi12hmBT-95" edge="1">
          <mxGeometry width="50" height="50" relative="1" as="geometry">
            <mxPoint x="15.600000000000023" y="79" as="sourcePoint" />
            <mxPoint x="15.600000000000023" y="39" as="targetPoint" />
          </mxGeometry>
        </mxCell>
        <mxCell id="8IY0u4yO5Yo8Mi12hmBT-89" value="Servidor FIRE" style="image;aspect=fixed;perimeter=ellipsePerimeter;html=1;align=center;shadow=0;dashed=0;spacingTop=3;image=img/lib/active_directory/generic_server.svg;labelPosition=center;verticalLabelPosition=top;verticalAlign=bottom;" parent="8IY0u4yO5Yo8Mi12hmBT-95" vertex="1">
          <mxGeometry width="28" height="50" as="geometry" />
        </mxCell>
        <mxCell id="8IY0u4yO5Yo8Mi12hmBT-96" value="" style="group" parent="1" vertex="1" connectable="0">
          <mxGeometry x="680" y="580" width="62.5" height="80" as="geometry" />
        </mxCell>
        <mxCell id="vx4SSV7gI0Ox7AA9ZbCn-10" value="" style="group" parent="8IY0u4yO5Yo8Mi12hmBT-96" vertex="1" connectable="0">
          <mxGeometry width="62.5" height="80" as="geometry" />
        </mxCell>
        <mxCell id="8IY0u4yO5Yo8Mi12hmBT-82" value="Servidores&lt;br&gt;Aplicaciones" style="sketch=0;aspect=fixed;pointerEvents=1;shadow=0;dashed=0;html=1;strokeColor=none;labelPosition=center;verticalLabelPosition=top;verticalAlign=bottom;align=center;fillColor=#00188D;shape=mxgraph.mscae.enterprise.server_farm" parent="vx4SSV7gI0Ox7AA9ZbCn-10" vertex="1">
          <mxGeometry width="62.5" height="40" as="geometry" />
        </mxCell>
        <mxCell id="8IY0u4yO5Yo8Mi12hmBT-83" value="" style="endArrow=none;html=1;rounded=0;entryX=0.5;entryY=1;entryDx=0;entryDy=0;entryPerimeter=0;spacing=0;jumpSize=6;startSize=6;endSize=6;" parent="vx4SSV7gI0Ox7AA9ZbCn-10" target="8IY0u4yO5Yo8Mi12hmBT-82" edge="1">
          <mxGeometry width="50" height="50" relative="1" as="geometry">
            <mxPoint x="31" y="80" as="sourcePoint" />
            <mxPoint x="29" y="49" as="targetPoint" />
          </mxGeometry>
        </mxCell>
        <mxCell id="8IY0u4yO5Yo8Mi12hmBT-98" value="PCs" style="sketch=0;pointerEvents=1;shadow=0;dashed=0;html=1;strokeColor=none;fillColor=#505050;labelPosition=center;verticalLabelPosition=top;verticalAlign=bottom;outlineConnect=0;align=center;shape=mxgraph.office.devices.workstation_pc;" parent="1" vertex="1">
          <mxGeometry x="795.5" y="720" width="53" height="59" as="geometry" />
        </mxCell>
        <mxCell id="8IY0u4yO5Yo8Mi12hmBT-99" value="PortÃ¡tiles" style="sketch=0;pointerEvents=1;shadow=0;dashed=0;html=1;strokeColor=none;fillColor=#505050;labelPosition=center;verticalLabelPosition=top;verticalAlign=bottom;outlineConnect=0;align=center;shape=mxgraph.office.devices.laptop;" parent="1" vertex="1">
          <mxGeometry x="921" y="745" width="58" height="34" as="geometry" />
        </mxCell>
        <mxCell id="8IY0u4yO5Yo8Mi12hmBT-97" value="Impresoras" style="sketch=0;pointerEvents=1;shadow=0;dashed=0;html=1;strokeColor=none;fillColor=#505050;labelPosition=center;verticalLabelPosition=top;verticalAlign=bottom;outlineConnect=0;align=center;shape=mxgraph.office.devices.printer;" parent="1" vertex="1">
          <mxGeometry x="681" y="732" width="56" height="47" as="geometry" />
        </mxCell>
        <mxCell id="8IY0u4yO5Yo8Mi12hmBT-103" value="" style="group" parent="1" vertex="1" connectable="0">
          <mxGeometry x="600" y="792.5" width="466" height="30" as="geometry" />
        </mxCell>
        <mxCell id="8IY0u4yO5Yo8Mi12hmBT-104" value="" style="endArrow=none;html=1;rounded=0;entryX=0;entryY=0.5;entryDx=0;entryDy=0;spacing=2;" parent="8IY0u4yO5Yo8Mi12hmBT-103" target="8IY0u4yO5Yo8Mi12hmBT-105" edge="1">
          <mxGeometry width="50" height="50" relative="1" as="geometry">
            <mxPoint y="16" as="sourcePoint" />
            <mxPoint x="400" y="16" as="targetPoint" />
          </mxGeometry>
        </mxCell>
        <mxCell id="8IY0u4yO5Yo8Mi12hmBT-105" value="&lt;span style=&quot;font-size: 18px;&quot;&gt;&lt;b&gt;VLAN USUARIOS&lt;/b&gt;&lt;/span&gt;" style="text;html=1;align=left;verticalAlign=middle;whiteSpace=wrap;rounded=0;" parent="8IY0u4yO5Yo8Mi12hmBT-103" vertex="1">
          <mxGeometry x="421" width="60" height="30" as="geometry" />
        </mxCell>
        <mxCell id="8IY0u4yO5Yo8Mi12hmBT-106" value="" style="endArrow=none;html=1;rounded=0;spacing=0;jumpSize=6;startSize=6;endSize=6;" parent="8IY0u4yO5Yo8Mi12hmBT-103" edge="1">
          <mxGeometry width="50" height="50" relative="1" as="geometry">
            <mxPoint x="224" y="15" as="sourcePoint" />
            <mxPoint x="224.5" y="-13" as="targetPoint" />
          </mxGeometry>
        </mxCell>
        <mxCell id="8IY0u4yO5Yo8Mi12hmBT-107" value="" style="endArrow=none;html=1;rounded=0;spacing=0;jumpSize=6;startSize=6;endSize=6;" parent="8IY0u4yO5Yo8Mi12hmBT-103" edge="1">
          <mxGeometry width="50" height="50" relative="1" as="geometry">
            <mxPoint x="352" y="15" as="sourcePoint" />
            <mxPoint x="352.5" y="-13" as="targetPoint" />
          </mxGeometry>
        </mxCell>
        <mxCell id="vC8GjeQCqpRo3Mo0Ykjp-2" value="" style="endArrow=none;html=1;rounded=0;" parent="1" edge="1">
          <mxGeometry width="50" height="50" relative="1" as="geometry">
            <mxPoint x="360" y="655" as="sourcePoint" />
            <mxPoint x="580" y="655" as="targetPoint" />
          </mxGeometry>
        </mxCell>
        <mxCell id="vC8GjeQCqpRo3Mo0Ykjp-3" value="AC" style="edgeLabel;html=1;align=center;verticalAlign=middle;resizable=0;points=[];" parent="vC8GjeQCqpRo3Mo0Ykjp-2" vertex="1" connectable="0">
          <mxGeometry x="-0.1091" relative="1" as="geometry">
            <mxPoint x="36" as="offset" />
          </mxGeometry>
        </mxCell>
        <mxCell id="vC8GjeQCqpRo3Mo0Ykjp-4" value="Red SARA" style="ellipse;shape=cloud;whiteSpace=wrap;html=1;fillColor=none;" parent="1" vertex="1">
          <mxGeometry x="255" y="615" width="120" height="80" as="geometry" />
        </mxCell>
        <mxCell id="vC8GjeQCqpRo3Mo0Ykjp-5" value="Red TestaNG" style="ellipse;shape=cloud;whiteSpace=wrap;html=1;fillColor=none;" parent="1" vertex="1">
          <mxGeometry x="255" y="485" width="120" height="80" as="geometry" />
        </mxCell>
        <mxCell id="vC8GjeQCqpRo3Mo0Ykjp-6" value="" style="endArrow=none;html=1;rounded=0;entryX=0.55;entryY=0.95;entryDx=0;entryDy=0;entryPerimeter=0;" parent="1" target="vC8GjeQCqpRo3Mo0Ykjp-5" edge="1">
          <mxGeometry width="50" height="50" relative="1" as="geometry">
            <mxPoint x="320" y="625" as="sourcePoint" />
            <mxPoint x="370" y="575" as="targetPoint" />
          </mxGeometry>
        </mxCell>
        <mxCell id="vC8GjeQCqpRo3Mo0Ykjp-7" value="Funcionario" style="shape=umlActor;verticalLabelPosition=bottom;verticalAlign=top;html=1;outlineConnect=0;fillColor=none;" parent="1" vertex="1">
          <mxGeometry x="304" y="799" width="30" height="51.5" as="geometry" />
        </mxCell>
        <mxCell id="vC8GjeQCqpRo3Mo0Ykjp-8" value="" style="endArrow=classic;html=1;rounded=0;entryX=0.55;entryY=0.95;entryDx=0;entryDy=0;entryPerimeter=0;" parent="1" target="vC8GjeQCqpRo3Mo0Ykjp-4" edge="1">
          <mxGeometry width="50" height="50" relative="1" as="geometry">
            <mxPoint x="320" y="797" as="sourcePoint" />
            <mxPoint x="360" y="746.5" as="targetPoint" />
          </mxGeometry>
        </mxCell>
        <mxCell id="vC8GjeQCqpRo3Mo0Ykjp-10" value="Portal AutoprovisiÃ³n Nube SARA" style="rounded=0;whiteSpace=wrap;html=1;fillColor=none;" parent="1" vertex="1">
          <mxGeometry x="410" y="713.5" width="120" height="60" as="geometry" />
        </mxCell>
        <mxCell id="vC8GjeQCqpRo3Mo0Ykjp-11" style="edgeStyle=orthogonalEdgeStyle;rounded=0;orthogonalLoop=1;jettySize=auto;html=1;entryX=0.96;entryY=0.7;entryDx=0;entryDy=0;entryPerimeter=0;endArrow=none;endFill=0;" parent="1" source="vC8GjeQCqpRo3Mo0Ykjp-10" target="vC8GjeQCqpRo3Mo0Ykjp-4" edge="1">
          <mxGeometry relative="1" as="geometry" />
        </mxCell>
        <mxCell id="vC8GjeQCqpRo3Mo0Ykjp-12" value="Funcionario&lt;br&gt;Entidad Local" style="shape=umlActor;verticalLabelPosition=bottom;verticalAlign=top;html=1;outlineConnect=0;fillColor=none;" parent="1" vertex="1">
          <mxGeometry x="70" y="866.5" width="30" height="51.5" as="geometry" />
        </mxCell>
        <mxCell id="vC8GjeQCqpRo3Mo0Ykjp-15" value="EE.LL" style="ellipse;shape=cloud;whiteSpace=wrap;html=1;fillColor=none;" parent="1" vertex="1">
          <mxGeometry x="37.5" y="737" width="95" height="72" as="geometry" />
        </mxCell>
        <mxCell id="vC8GjeQCqpRo3Mo0Ykjp-16" value="" style="endArrow=classic;html=1;rounded=0;entryX=0.479;entryY=0.972;entryDx=0;entryDy=0;entryPerimeter=0;" parent="1" edge="1">
          <mxGeometry width="50" height="50" relative="1" as="geometry">
            <mxPoint x="84.5" y="864.5" as="sourcePoint" />
            <mxPoint x="85.00500000000011" y="804.9839999999999" as="targetPoint" />
          </mxGeometry>
        </mxCell>
        <mxCell id="vC8GjeQCqpRo3Mo0Ykjp-19" value="" style="group" parent="1" vertex="1" connectable="0">
          <mxGeometry x="20" y="618.5" width="130" height="91" as="geometry" />
        </mxCell>
        <mxCell id="vC8GjeQCqpRo3Mo0Ykjp-17" value="Redes CC.AA" style="ellipse;shape=cloud;whiteSpace=wrap;html=1;fillColor=none;" parent="vC8GjeQCqpRo3Mo0Ykjp-19" vertex="1">
          <mxGeometry width="120" height="81" as="geometry" />
        </mxCell>
        <mxCell id="vC8GjeQCqpRo3Mo0Ykjp-24" style="edgeStyle=orthogonalEdgeStyle;rounded=0;orthogonalLoop=1;jettySize=auto;html=1;exitX=0.96;exitY=0.7;exitDx=0;exitDy=0;exitPerimeter=0;endArrow=none;endFill=0;" parent="vC8GjeQCqpRo3Mo0Ykjp-19" source="vC8GjeQCqpRo3Mo0Ykjp-18" edge="1">
          <mxGeometry relative="1" as="geometry">
            <mxPoint x="190" y="38" as="targetPoint" />
            <mxPoint x="108.20000000000005" y="64.70000000000005" as="sourcePoint" />
          </mxGeometry>
        </mxCell>
        <mxCell id="vC8GjeQCqpRo3Mo0Ykjp-18" value="Redes CC.AA" style="ellipse;shape=cloud;whiteSpace=wrap;html=1;fillColor=none;" parent="vC8GjeQCqpRo3Mo0Ykjp-19" vertex="1">
          <mxGeometry x="10" y="10" width="120" height="81" as="geometry" />
        </mxCell>
        <mxCell id="vC8GjeQCqpRo3Mo0Ykjp-20" value="" style="endArrow=none;html=1;rounded=0;entryX=0.417;entryY=0.944;entryDx=0;entryDy=0;entryPerimeter=0;" parent="vC8GjeQCqpRo3Mo0Ykjp-19" target="vC8GjeQCqpRo3Mo0Ykjp-18" edge="1">
          <mxGeometry width="50" height="50" relative="1" as="geometry">
            <mxPoint x="60" y="126.5" as="sourcePoint" />
            <mxPoint x="110" y="76.5" as="targetPoint" />
          </mxGeometry>
        </mxCell>
        <mxCell id="vC8GjeQCqpRo3Mo0Ykjp-21" value="SERVCIOS COMUNES" style="rounded=0;whiteSpace=wrap;html=1;fillColor=none;" parent="1" vertex="1">
          <mxGeometry x="20" y="541" width="162.5" height="44" as="geometry" />
        </mxCell>
        <mxCell id="vC8GjeQCqpRo3Mo0Ykjp-22" value="" style="endArrow=classic;html=1;rounded=0;exitX=0.418;exitY=1.068;exitDx=0;exitDy=0;exitPerimeter=0;" parent="1" edge="1">
          <mxGeometry width="50" height="50" relative="1" as="geometry">
            <mxPoint x="87.92499999999995" y="585.002" as="sourcePoint" />
            <mxPoint x="270" y="656.51" as="targetPoint" />
            <Array as="points">
              <mxPoint x="170" y="657.01" />
            </Array>
          </mxGeometry>
        </mxCell>
        <mxCell id="vC8GjeQCqpRo3Mo0Ykjp-25" value="CL@VE&lt;br&gt;AUTENTIC@&lt;br&gt;@FIRMA&lt;br&gt;NOTIFIC@&lt;br&gt;REGAGE&lt;br&gt;..." style="whiteSpace=wrap;html=1;aspect=fixed;fillColor=none;" parent="1" vertex="1">
          <mxGeometry x="41.25" y="365" width="120" height="120" as="geometry" />
        </mxCell>
        <mxCell id="vC8GjeQCqpRo3Mo0Ykjp-26" value="" style="endArrow=classic;html=1;rounded=0;entryX=0.34;entryY=1.008;entryDx=0;entryDy=0;entryPerimeter=0;" parent="1" edge="1">
          <mxGeometry width="50" height="50" relative="1" as="geometry">
            <mxPoint x="93.5" y="541" as="sourcePoint" />
            <mxPoint x="93.04999999999995" y="485.96000000000004" as="targetPoint" />
          </mxGeometry>
        </mxCell>
        <mxCell id="a41TGEQVE6VOu8PjsHSe-1" value="Diagrama realizado por&lt;br&gt;PEDRO MORENO&lt;br&gt;&lt;br&gt;https://pmoreno-rodriguez.github.io/opos_gsi/#/" style="shape=note;whiteSpace=wrap;html=1;backgroundOutline=1;darkOpacity=0.05;fillColor=none;" parent="1" vertex="1">
          <mxGeometry x="20" y="30" width="268.75" height="90" as="geometry" />
        </mxCell>
        <mxCell id="vx4SSV7gI0Ox7AA9ZbCn-3" value="" style="endArrow=none;html=1;rounded=0;entryX=0.5;entryY=1;entryDx=0;entryDy=0;entryPerimeter=0;" parent="1" target="vx4SSV7gI0Ox7AA9ZbCn-1" edge="1">
          <mxGeometry width="50" height="50" relative="1" as="geometry">
            <mxPoint x="878.91" y="338" as="sourcePoint" />
            <mxPoint x="879" y="320" as="targetPoint" />
          </mxGeometry>
        </mxCell>
        <mxCell id="vx4SSV7gI0Ox7AA9ZbCn-1" value="" style="fillColor=#28A8E0;verticalLabelPosition=bottom;sketch=0;html=1;strokeColor=#ffffff;verticalAlign=top;align=center;points=[[0.145,0.145,0],[0.5,0,0],[0.855,0.145,0],[1,0.5,0],[0.855,0.855,0],[0.5,1,0],[0.145,0.855,0],[0,0.5,0]];pointerEvents=1;shape=mxgraph.cisco_safe.compositeIcon;bgIcon=ellipse;resIcon=mxgraph.cisco_safe.capability.web_application_firewall;" parent="1" vertex="1">
          <mxGeometry x="860" y="278.5" width="38" height="36.5" as="geometry" />
        </mxCell>
        <mxCell id="vx4SSV7gI0Ox7AA9ZbCn-4" value="WAF&lt;br&gt;Firewall" style="text;html=1;align=center;verticalAlign=middle;whiteSpace=wrap;rounded=0;" parent="1" vertex="1">
          <mxGeometry x="898" y="273.5" width="60" height="30" as="geometry" />
        </mxCell>
        <mxCell id="8IY0u4yO5Yo8Mi12hmBT-79" value="" style="endArrow=none;html=1;rounded=0;" parent="1" edge="1">
          <mxGeometry width="50" height="50" relative="1" as="geometry">
            <mxPoint x="614" y="660" as="sourcePoint" />
            <mxPoint x="1014" y="660" as="targetPoint" />
          </mxGeometry>
        </mxCell>
        <mxCell id="8IY0u4yO5Yo8Mi12hmBT-80" value="&lt;span style=&quot;font-size: 18px;&quot;&gt;&lt;b&gt;VLAN APLICACIONES&lt;/b&gt;&lt;/span&gt;" style="text;html=1;align=left;verticalAlign=middle;whiteSpace=wrap;rounded=0;" parent="1" vertex="1">
          <mxGeometry x="1020" y="644" width="60" height="30" as="geometry" />
        </mxCell>
        <mxCell id="vx4SSV7gI0Ox7AA9ZbCn-9" value="" style="group" parent="1" vertex="1" connectable="0">
          <mxGeometry x="790" y="589" width="40" height="70" as="geometry" />
        </mxCell>
        <mxCell id="8IY0u4yO5Yo8Mi12hmBT-86" value="Interno" style="image;aspect=fixed;html=1;points=[];align=center;fontSize=12;image=img/lib/azure2/networking/DNS_Zones.svg;labelPosition=center;verticalLabelPosition=top;verticalAlign=bottom;" parent="vx4SSV7gI0Ox7AA9ZbCn-9" vertex="1">
          <mxGeometry width="40" height="40" as="geometry" />
        </mxCell>
        <mxCell id="8IY0u4yO5Yo8Mi12hmBT-85" value="" style="endArrow=none;html=1;rounded=0;movable=1;resizable=1;rotatable=1;deletable=1;editable=1;locked=0;connectable=1;" parent="vx4SSV7gI0Ox7AA9ZbCn-9" edge="1">
          <mxGeometry width="50" height="50" relative="1" as="geometry">
            <mxPoint x="18" y="70" as="sourcePoint" />
            <mxPoint x="18" y="40" as="targetPoint" />
          </mxGeometry>
        </mxCell>
        <mxCell id="vx4SSV7gI0Ox7AA9ZbCn-17" value="" style="group" parent="1" vertex="1" connectable="0">
          <mxGeometry x="612.88" y="589" width="37.120000000000005" height="70" as="geometry" />
        </mxCell>
        <mxCell id="vx4SSV7gI0Ox7AA9ZbCn-5" value="IDS" style="sketch=0;points=[[0.015,0.015,0],[0.985,0.015,0],[0.985,0.985,0],[0.015,0.985,0],[0.25,0,0],[0.5,0,0],[0.75,0,0],[1,0.25,0],[1,0.5,0],[1,0.75,0],[0.75,1,0],[0.5,1,0],[0.25,1,0],[0,0.75,0],[0,0.5,0],[0,0.25,0]];verticalLabelPosition=top;html=1;verticalAlign=bottom;aspect=fixed;align=center;pointerEvents=1;shape=mxgraph.cisco19.rect;prIcon=ips_ids;fillColor=#FAFAFA;strokeColor=#005073;labelPosition=center;" parent="vx4SSV7gI0Ox7AA9ZbCn-17" vertex="1">
          <mxGeometry width="37.12" height="29" as="geometry" />
        </mxCell>
        <mxCell id="vx4SSV7gI0Ox7AA9ZbCn-16" value="" style="endArrow=none;html=1;rounded=0;entryX=0.5;entryY=1;entryDx=0;entryDy=0;entryPerimeter=0;spacing=0;jumpSize=6;startSize=6;endSize=6;" parent="vx4SSV7gI0Ox7AA9ZbCn-17" edge="1">
          <mxGeometry width="50" height="50" relative="1" as="geometry">
            <mxPoint x="20.120000000000005" y="70" as="sourcePoint" />
            <mxPoint x="20.120000000000005" y="30" as="targetPoint" />
          </mxGeometry>
        </mxCell>
        <mxCell id="vx4SSV7gI0Ox7AA9ZbCn-18" value="" style="group" parent="1" vertex="1" connectable="0">
          <mxGeometry x="612.88" y="737.5" width="37.120000000000005" height="70" as="geometry" />
        </mxCell>
        <mxCell id="vx4SSV7gI0Ox7AA9ZbCn-19" value="IDS" style="sketch=0;points=[[0.015,0.015,0],[0.985,0.015,0],[0.985,0.985,0],[0.015,0.985,0],[0.25,0,0],[0.5,0,0],[0.75,0,0],[1,0.25,0],[1,0.5,0],[1,0.75,0],[0.75,1,0],[0.5,1,0],[0.25,1,0],[0,0.75,0],[0,0.5,0],[0,0.25,0]];verticalLabelPosition=top;html=1;verticalAlign=bottom;aspect=fixed;align=center;pointerEvents=1;shape=mxgraph.cisco19.rect;prIcon=ips_ids;fillColor=#FAFAFA;strokeColor=#005073;labelPosition=center;" parent="vx4SSV7gI0Ox7AA9ZbCn-18" vertex="1">
          <mxGeometry width="37.12" height="29" as="geometry" />
        </mxCell>
        <mxCell id="vx4SSV7gI0Ox7AA9ZbCn-20" value="" style="endArrow=none;html=1;rounded=0;entryX=0.5;entryY=1;entryDx=0;entryDy=0;entryPerimeter=0;spacing=0;jumpSize=6;startSize=6;endSize=6;" parent="vx4SSV7gI0Ox7AA9ZbCn-18" edge="1">
          <mxGeometry width="50" height="50" relative="1" as="geometry">
            <mxPoint x="20.120000000000005" y="70" as="sourcePoint" />
            <mxPoint x="20.120000000000005" y="30" as="targetPoint" />
          </mxGeometry>
        </mxCell>
        <mxCell id="vx4SSV7gI0Ox7AA9ZbCn-21" value="" style="group" parent="1" vertex="1" connectable="0">
          <mxGeometry x="610" y="877.5" width="37.120000000000005" height="70" as="geometry" />
        </mxCell>
        <mxCell id="vx4SSV7gI0Ox7AA9ZbCn-22" value="IDS" style="sketch=0;points=[[0.015,0.015,0],[0.985,0.015,0],[0.985,0.985,0],[0.015,0.985,0],[0.25,0,0],[0.5,0,0],[0.75,0,0],[1,0.25,0],[1,0.5,0],[1,0.75,0],[0.75,1,0],[0.5,1,0],[0.25,1,0],[0,0.75,0],[0,0.5,0],[0,0.25,0]];verticalLabelPosition=top;html=1;verticalAlign=bottom;aspect=fixed;align=center;pointerEvents=1;shape=mxgraph.cisco19.rect;prIcon=ips_ids;fillColor=#FAFAFA;strokeColor=#005073;labelPosition=center;" parent="vx4SSV7gI0Ox7AA9ZbCn-21" vertex="1">
          <mxGeometry width="37.12" height="29" as="geometry" />
        </mxCell>
        <mxCell id="vx4SSV7gI0Ox7AA9ZbCn-23" value="" style="endArrow=none;html=1;rounded=0;entryX=0.5;entryY=1;entryDx=0;entryDy=0;entryPerimeter=0;spacing=0;jumpSize=6;startSize=6;endSize=6;" parent="vx4SSV7gI0Ox7AA9ZbCn-21" edge="1">
          <mxGeometry width="50" height="50" relative="1" as="geometry">
            <mxPoint x="20.120000000000005" y="70" as="sourcePoint" />
            <mxPoint x="20.120000000000005" y="30" as="targetPoint" />
          </mxGeometry>
        </mxCell>
        <mxCell id="vx4SSV7gI0Ox7AA9ZbCn-24" value="" style="group" parent="1" vertex="1" connectable="0">
          <mxGeometry x="598" y="1223" width="466" height="30" as="geometry" />
        </mxCell>
        <mxCell id="vx4SSV7gI0Ox7AA9ZbCn-25" value="" style="endArrow=none;html=1;rounded=0;entryX=0;entryY=0.5;entryDx=0;entryDy=0;spacing=2;" parent="vx4SSV7gI0Ox7AA9ZbCn-24" target="vx4SSV7gI0Ox7AA9ZbCn-26" edge="1">
          <mxGeometry width="50" height="50" relative="1" as="geometry">
            <mxPoint y="16" as="sourcePoint" />
            <mxPoint x="400" y="16" as="targetPoint" />
          </mxGeometry>
        </mxCell>
        <mxCell id="vx4SSV7gI0Ox7AA9ZbCn-26" value="&lt;span style=&quot;font-size: 18px;&quot;&gt;&lt;b&gt;VLAN DATOS&lt;/b&gt;&lt;/span&gt;" style="text;html=1;align=left;verticalAlign=middle;whiteSpace=wrap;rounded=0;" parent="vx4SSV7gI0Ox7AA9ZbCn-24" vertex="1">
          <mxGeometry x="421" width="60" height="30" as="geometry" />
        </mxCell>
        <mxCell id="vx4SSV7gI0Ox7AA9ZbCn-27" value="" style="endArrow=none;html=1;rounded=0;spacing=0;jumpSize=6;startSize=6;endSize=6;" parent="vx4SSV7gI0Ox7AA9ZbCn-24" edge="1">
          <mxGeometry width="50" height="50" relative="1" as="geometry">
            <mxPoint x="101" y="15" as="sourcePoint" />
            <mxPoint x="101.5" y="-13" as="targetPoint" />
          </mxGeometry>
        </mxCell>
        <mxCell id="vx4SSV7gI0Ox7AA9ZbCn-28" value="" style="endArrow=none;html=1;rounded=0;spacing=0;jumpSize=6;startSize=6;endSize=6;" parent="vx4SSV7gI0Ox7AA9ZbCn-24" edge="1">
          <mxGeometry width="50" height="50" relative="1" as="geometry">
            <mxPoint x="229" y="15" as="sourcePoint" />
            <mxPoint x="229.5" y="-13" as="targetPoint" />
          </mxGeometry>
        </mxCell>
        <mxCell id="vx4SSV7gI0Ox7AA9ZbCn-29" value="" style="endArrow=none;html=1;rounded=0;spacing=0;jumpSize=6;startSize=6;endSize=6;" parent="vx4SSV7gI0Ox7AA9ZbCn-24" edge="1">
          <mxGeometry width="50" height="50" relative="1" as="geometry">
            <mxPoint x="331" y="15" as="sourcePoint" />
            <mxPoint x="331.5" y="-13" as="targetPoint" />
          </mxGeometry>
        </mxCell>
        <mxCell id="vx4SSV7gI0Ox7AA9ZbCn-30" value="BBDD SQL" style="image;aspect=fixed;perimeter=ellipsePerimeter;html=1;align=center;shadow=0;dashed=0;spacingTop=3;image=img/lib/active_directory/database.svg;labelPosition=center;verticalLabelPosition=top;verticalAlign=bottom;" parent="1" vertex="1">
          <mxGeometry x="672.5" y="1179" width="50" height="37" as="geometry" />
        </mxCell>
        <mxCell id="vx4SSV7gI0Ox7AA9ZbCn-31" value="BBDD NoSQL" style="image;aspect=fixed;perimeter=ellipsePerimeter;html=1;align=center;shadow=0;dashed=0;spacingTop=3;image=img/lib/active_directory/database.svg;labelPosition=center;verticalLabelPosition=top;verticalAlign=bottom;" parent="1" vertex="1">
          <mxGeometry x="802" y="1179" width="50" height="37" as="geometry" />
        </mxCell>
        <mxCell id="vx4SSV7gI0Ox7AA9ZbCn-32" value="DWH" style="fontColor=#000000;verticalAlign=bottom;verticalLabelPosition=top;labelPosition=center;align=center;html=1;outlineConnect=0;fillColor=#CCCCCC;strokeColor=#6881B3;gradientColor=none;gradientDirection=north;strokeWidth=2;shape=mxgraph.networks.storage;" parent="1" vertex="1">
          <mxGeometry x="915" y="1180" width="34" height="40" as="geometry" />
        </mxCell>
        <mxCell id="vx4SSV7gI0Ox7AA9ZbCn-33" value="" style="group" parent="1" vertex="1" connectable="0">
          <mxGeometry x="609" y="1111" width="37.120000000000005" height="70" as="geometry" />
        </mxCell>
        <mxCell id="vx4SSV7gI0Ox7AA9ZbCn-34" value="IDS" style="sketch=0;points=[[0.015,0.015,0],[0.985,0.015,0],[0.985,0.985,0],[0.015,0.985,0],[0.25,0,0],[0.5,0,0],[0.75,0,0],[1,0.25,0],[1,0.5,0],[1,0.75,0],[0.75,1,0],[0.5,1,0],[0.25,1,0],[0,0.75,0],[0,0.5,0],[0,0.25,0]];verticalLabelPosition=top;html=1;verticalAlign=bottom;aspect=fixed;align=center;pointerEvents=1;shape=mxgraph.cisco19.rect;prIcon=ips_ids;fillColor=#FAFAFA;strokeColor=#005073;labelPosition=center;" parent="vx4SSV7gI0Ox7AA9ZbCn-33" vertex="1">
          <mxGeometry y="58" width="37.12" height="29" as="geometry" />
        </mxCell>
        <mxCell id="vx4SSV7gI0Ox7AA9ZbCn-35" value="" style="endArrow=none;html=1;rounded=0;entryX=0.5;entryY=1;entryDx=0;entryDy=0;entryPerimeter=0;spacing=0;jumpSize=6;startSize=6;endSize=6;" parent="vx4SSV7gI0Ox7AA9ZbCn-33" edge="1">
          <mxGeometry width="50" height="50" relative="1" as="geometry">
            <mxPoint x="20.120000000000005" y="128" as="sourcePoint" />
            <mxPoint x="20.120000000000005" y="88" as="targetPoint" />
          </mxGeometry>
        </mxCell>
        <mxCell id="vx4SSV7gI0Ox7AA9ZbCn-37" value="" style="editableCssRules=.*;html=1;shape=image;verticalLabelPosition=top;labelBackgroundColor=#ffffff;verticalAlign=bottom;aspect=fixed;imageAspect=0;image=data:image/svg+xml,PHN2ZyB4bWxucz0iaHR0cDovL3d3dy53My5vcmcvMjAwMC9zdmciIHhtbG5zOnY9Imh0dHBzOi8vdmVjdGEuaW8vbmFubyIgd2lkdGg9IjIwIiBoZWlnaHQ9IjEzLjUyOTk5OTczMjk3MTE5MSIgdmlld0JveD0iLTIuOTMyMDk3ODk3ODEyMDE0ZS05IC01LjI1ODAxNTA0MTgzNzk1NmUtMTUgMjAgMTMuNTI5OTk5NzMyOTcxMTkxIj4mI3hhOwk8c3R5bGUgdHlwZT0idGV4dC9jc3MiPiYjeGE7CS5zdDB7ZmlsbDojNDI4NWY0O30mI3hhOwkuc3Qxe2ZpbGw6IzY2OWRmNjt9JiN4YTsJPC9zdHlsZT4mI3hhOwk8cGF0aCBjbGFzcz0ic3QxIiBkPSJNOC44MyAxMC41OGgyLjMzdjIuNjRIOC44M3oiLz4mI3hhOwk8cGF0aCBjbGFzcz0ic3QwIiBkPSJNMTYuNDggOC42MWEuNTYuNTYgMCAwIDEtLjQtLjE3TDEyIDQuMjEgOS4yNiA3LjFhLjU3LjU3IDAgMCAxLS43Ni4wNUw2LjQyIDUuNDdsLTIuMiAyLjkyYS41Ni41NiAwIDAgMS0uNDUuMjJIMHYxLjcxYS43NS43NSAwIDAgMCAuNzQuNzVoMTguNTJhLjc1Ljc1IDAgMCAwIC43NC0uNzVWOC42MXoiLz4mI3hhOwk8cGF0aCBjbGFzcz0ic3QxIiBkPSJNMy41IDcuNWwyLjM4LTMuMTZhLjU1LjU1IDAgMCAxIC4zNy0uMjIuNjMuNjMgMCAwIDEgLjQyLjEybDIuMTIgMS43MiAyLjgtMi45NGEuNTQuNTQgMCAwIDEgLjQtLjE3aDBhLjU0LjU0IDAgMCAxIC40LjE3bDQuMzMgNC40OEgyMFYuNzRhLjc0Ljc0IDAgMCAwLS43NC0uNzRILjc0QS43NC43NCAwIDAgMCAwIC43NHY2LjgxeiIvPiYjeGE7CTxyZWN0IGNsYXNzPSJzdDAiIHg9IjYuNjciIHk9IjEyLjkyIiB3aWR0aD0iNi42NyIgaGVpZ2h0PSIuNjEiIHJ4PSIuMyIvPiYjeGE7PC9zdmc+;fontStyle=1;labelPosition=center;align=center;" parent="1" vertex="1">
          <mxGeometry x="677" y="884.5" width="47.86" height="33.5" as="geometry" />
        </mxCell>
        <mxCell id="vx4SSV7gI0Ox7AA9ZbCn-38" value="" style="editableCssRules=.*;html=1;shape=image;verticalLabelPosition=top;labelBackgroundColor=#ffffff;verticalAlign=bottom;aspect=fixed;imageAspect=0;image=data:image/svg+xml,PHN2ZyB4bWxucz0iaHR0cDovL3d3dy53My5vcmcvMjAwMC9zdmciIHhtbG5zOnY9Imh0dHBzOi8vdmVjdGEuaW8vbmFubyIgd2lkdGg9IjIwIiBoZWlnaHQ9IjEzLjUyOTk5OTczMjk3MTE5MSIgdmlld0JveD0iLTIuOTMyMDk3ODk3ODEyMDE0ZS05IC01LjI1ODAxNTA0MTgzNzk1NmUtMTUgMjAgMTMuNTI5OTk5NzMyOTcxMTkxIj4mI3hhOwk8c3R5bGUgdHlwZT0idGV4dC9jc3MiPiYjeGE7CS5zdDB7ZmlsbDojNDI4NWY0O30mI3hhOwkuc3Qxe2ZpbGw6IzY2OWRmNjt9JiN4YTsJPC9zdHlsZT4mI3hhOwk8cGF0aCBjbGFzcz0ic3QxIiBkPSJNOC44MyAxMC41OGgyLjMzdjIuNjRIOC44M3oiLz4mI3hhOwk8cGF0aCBjbGFzcz0ic3QwIiBkPSJNMTYuNDggOC42MWEuNTYuNTYgMCAwIDEtLjQtLjE3TDEyIDQuMjEgOS4yNiA3LjFhLjU3LjU3IDAgMCAxLS43Ni4wNUw2LjQyIDUuNDdsLTIuMiAyLjkyYS41Ni41NiAwIDAgMS0uNDUuMjJIMHYxLjcxYS43NS43NSAwIDAgMCAuNzQuNzVoMTguNTJhLjc1Ljc1IDAgMCAwIC43NC0uNzVWOC42MXoiLz4mI3hhOwk8cGF0aCBjbGFzcz0ic3QxIiBkPSJNMy41IDcuNWwyLjM4LTMuMTZhLjU1LjU1IDAgMCAxIC4zNy0uMjIuNjMuNjMgMCAwIDEgLjQyLjEybDIuMTIgMS43MiAyLjgtMi45NGEuNTQuNTQgMCAwIDEgLjQtLjE3aDBhLjU0LjU0IDAgMCAxIC40LjE3bDQuMzMgNC40OEgyMFYuNzRhLjc0Ljc0IDAgMCAwLS43NC0uNzRILjc0QS43NC43NCAwIDAgMCAwIC43NHY2LjgxeiIvPiYjeGE7CTxyZWN0IGNsYXNzPSJzdDAiIHg9IjYuNjciIHk9IjEyLjkyIiB3aWR0aD0iNi42NyIgaGVpZ2h0PSIuNjEiIHJ4PSIuMyIvPiYjeGE7PC9zdmc+;fontStyle=1;labelPosition=center;align=center;" parent="1" vertex="1">
          <mxGeometry x="804.0699999999999" y="884.5" width="47.86" height="33.5" as="geometry" />
        </mxCell>
        <mxCell id="vx4SSV7gI0Ox7AA9ZbCn-39" value="" style="editableCssRules=.*;html=1;shape=image;verticalLabelPosition=top;labelBackgroundColor=#ffffff;verticalAlign=bottom;aspect=fixed;imageAspect=0;image=data:image/svg+xml,PHN2ZyB4bWxucz0iaHR0cDovL3d3dy53My5vcmcvMjAwMC9zdmciIHhtbG5zOnY9Imh0dHBzOi8vdmVjdGEuaW8vbmFubyIgd2lkdGg9IjIwIiBoZWlnaHQ9IjEzLjUyOTk5OTczMjk3MTE5MSIgdmlld0JveD0iLTIuOTMyMDk3ODk3ODEyMDE0ZS05IC01LjI1ODAxNTA0MTgzNzk1NmUtMTUgMjAgMTMuNTI5OTk5NzMyOTcxMTkxIj4mI3hhOwk8c3R5bGUgdHlwZT0idGV4dC9jc3MiPiYjeGE7CS5zdDB7ZmlsbDojNDI4NWY0O30mI3hhOwkuc3Qxe2ZpbGw6IzY2OWRmNjt9JiN4YTsJPC9zdHlsZT4mI3hhOwk8cGF0aCBjbGFzcz0ic3QxIiBkPSJNOC44MyAxMC41OGgyLjMzdjIuNjRIOC44M3oiLz4mI3hhOwk8cGF0aCBjbGFzcz0ic3QwIiBkPSJNMTYuNDggOC42MWEuNTYuNTYgMCAwIDEtLjQtLjE3TDEyIDQuMjEgOS4yNiA3LjFhLjU3LjU3IDAgMCAxLS43Ni4wNUw2LjQyIDUuNDdsLTIuMiAyLjkyYS41Ni41NiAwIDAgMS0uNDUuMjJIMHYxLjcxYS43NS43NSAwIDAgMCAuNzQuNzVoMTguNTJhLjc1Ljc1IDAgMCAwIC43NC0uNzVWOC42MXoiLz4mI3hhOwk8cGF0aCBjbGFzcz0ic3QxIiBkPSJNMy41IDcuNWwyLjM4LTMuMTZhLjU1LjU1IDAgMCAxIC4zNy0uMjIuNjMuNjMgMCAwIDEgLjQyLjEybDIuMTIgMS43MiAyLjgtMi45NGEuNTQuNTQgMCAwIDEgLjQtLjE3aDBhLjU0LjU0IDAgMCAxIC40LjE3bDQuMzMgNC40OEgyMFYuNzRhLjc0Ljc0IDAgMCAwLS43NC0uNzRILjc0QS43NC43NCAwIDAgMCAwIC43NHY2LjgxeiIvPiYjeGE7CTxyZWN0IGNsYXNzPSJzdDAiIHg9IjYuNjciIHk9IjEyLjkyIiB3aWR0aD0iNi42NyIgaGVpZ2h0PSIuNjEiIHJ4PSIuMyIvPiYjeGE7PC9zdmc+;fontStyle=1;labelPosition=center;align=center;" parent="1" vertex="1">
          <mxGeometry x="907.0699999999999" y="884.5" width="47.86" height="33.5" as="geometry" />
        </mxCell>
        <mxCell id="vx4SSV7gI0Ox7AA9ZbCn-43" value="CONSOLAS DE MONITORIZACIÃN" style="text;html=1;align=center;verticalAlign=middle;whiteSpace=wrap;rounded=0;" parent="1" vertex="1">
          <mxGeometry x="690" y="854.5" width="240" height="30" as="geometry" />
        </mxCell>
        <mxCell id="vx4SSV7gI0Ox7AA9ZbCn-53" value="" style="group" parent="1" vertex="1" connectable="0">
          <mxGeometry x="611" y="1020" width="37.120000000000005" height="70" as="geometry" />
        </mxCell>
        <mxCell id="vx4SSV7gI0Ox7AA9ZbCn-54" value="IDS" style="sketch=0;points=[[0.015,0.015,0],[0.985,0.015,0],[0.985,0.985,0],[0.015,0.985,0],[0.25,0,0],[0.5,0,0],[0.75,0,0],[1,0.25,0],[1,0.5,0],[1,0.75,0],[0.75,1,0],[0.5,1,0],[0.25,1,0],[0,0.75,0],[0,0.5,0],[0,0.25,0]];verticalLabelPosition=top;html=1;verticalAlign=bottom;aspect=fixed;align=center;pointerEvents=1;shape=mxgraph.cisco19.rect;prIcon=ips_ids;fillColor=#FAFAFA;strokeColor=#005073;labelPosition=center;" parent="vx4SSV7gI0Ox7AA9ZbCn-53" vertex="1">
          <mxGeometry width="37.12" height="29" as="geometry" />
        </mxCell>
        <mxCell id="vx4SSV7gI0Ox7AA9ZbCn-55" value="" style="endArrow=none;html=1;rounded=0;entryX=0.5;entryY=1;entryDx=0;entryDy=0;entryPerimeter=0;spacing=0;jumpSize=6;startSize=6;endSize=6;" parent="vx4SSV7gI0Ox7AA9ZbCn-53" edge="1">
          <mxGeometry width="50" height="50" relative="1" as="geometry">
            <mxPoint x="20.120000000000005" y="70" as="sourcePoint" />
            <mxPoint x="20.120000000000005" y="30" as="targetPoint" />
          </mxGeometry>
        </mxCell>
        <mxCell id="vx4SSV7gI0Ox7AA9ZbCn-45" value="" style="endArrow=none;html=1;rounded=0;entryX=0;entryY=0.5;entryDx=0;entryDy=0;spacing=2;" parent="1" target="vx4SSV7gI0Ox7AA9ZbCn-46" edge="1">
          <mxGeometry width="50" height="50" relative="1" as="geometry">
            <mxPoint x="600" y="1090" as="sourcePoint" />
            <mxPoint x="1000" y="1090" as="targetPoint" />
          </mxGeometry>
        </mxCell>
        <mxCell id="vx4SSV7gI0Ox7AA9ZbCn-46" value="&lt;span style=&quot;font-size: 18px;&quot;&gt;&lt;b&gt;VLAN VOZ IP&lt;/b&gt;&lt;/span&gt;" style="text;html=1;align=left;verticalAlign=middle;whiteSpace=wrap;rounded=0;" parent="1" vertex="1">
          <mxGeometry x="1021" y="1074" width="79" height="30" as="geometry" />
        </mxCell>
        <mxCell id="vx4SSV7gI0Ox7AA9ZbCn-47" value="" style="endArrow=none;html=1;rounded=0;spacing=0;jumpSize=6;startSize=6;endSize=6;" parent="1" edge="1">
          <mxGeometry width="50" height="50" relative="1" as="geometry">
            <mxPoint x="758" y="1089" as="sourcePoint" />
            <mxPoint x="758.5" y="1061" as="targetPoint" />
          </mxGeometry>
        </mxCell>
        <mxCell id="vx4SSV7gI0Ox7AA9ZbCn-49" value="" style="endArrow=none;html=1;rounded=0;spacing=0;jumpSize=6;startSize=6;endSize=6;" parent="1" edge="1">
          <mxGeometry width="50" height="50" relative="1" as="geometry">
            <mxPoint x="931" y="1089" as="sourcePoint" />
            <mxPoint x="931.5" y="1061" as="targetPoint" />
          </mxGeometry>
        </mxCell>
        <mxCell id="vx4SSV7gI0Ox7AA9ZbCn-62" value="Gateway&amp;nbsp;&lt;div&gt;Red TelefÃ³nica&lt;/div&gt;" style="sketch=0;pointerEvents=1;shadow=0;dashed=0;html=1;strokeColor=none;fillColor=#505050;labelPosition=center;verticalLabelPosition=top;verticalAlign=bottom;outlineConnect=0;align=center;shape=mxgraph.office.communications.voip_gateway;" parent="1" vertex="1">
          <mxGeometry x="905.5" y="1047.5" width="51" height="15" as="geometry" />
        </mxCell>
        <mxCell id="vx4SSV7gI0Ox7AA9ZbCn-63" value="PBX&lt;br&gt;Centralita Private&lt;br&gt;Branch" style="sketch=0;pointerEvents=1;shadow=0;dashed=0;html=1;strokeColor=none;fillColor=#505050;labelPosition=center;verticalLabelPosition=top;verticalAlign=bottom;outlineConnect=0;align=center;shape=mxgraph.office.devices.ip_pbx;" parent="1" vertex="1">
          <mxGeometry x="724" y="1020" width="59" height="39" as="geometry" />
        </mxCell>
        <mxCell id="vx4SSV7gI0Ox7AA9ZbCn-67" value="" style="group" parent="1" vertex="1" connectable="0">
          <mxGeometry x="685" y="1240" width="300" height="200" as="geometry" />
        </mxCell>
        <mxCell id="vx4SSV7gI0Ox7AA9ZbCn-64" value="RED ÃREA DE ALMACENAMIENTO&lt;div&gt;&lt;br&gt;&lt;/div&gt;&lt;div&gt;SAN NETWORK&lt;/div&gt;" style="ellipse;shape=cloud;whiteSpace=wrap;html=1;fillColor=none;" parent="vx4SSV7gI0Ox7AA9ZbCn-67" vertex="1">
          <mxGeometry y="50" width="300" height="150" as="geometry" />
        </mxCell>
        <mxCell id="vx4SSV7gI0Ox7AA9ZbCn-66" value="" style="endArrow=none;html=1;rounded=0;spacing=0;jumpSize=6;startSize=6;endSize=6;" parent="vx4SSV7gI0Ox7AA9ZbCn-67" edge="1">
          <mxGeometry width="50" height="50" relative="1" as="geometry">
            <mxPoint x="142.40999999999997" y="68" as="sourcePoint" />
            <mxPoint x="142" as="targetPoint" />
          </mxGeometry>
        </mxCell>
        <mxCell id="snmEzDOHp0Ltsyz3abIs-1" value="" style="group" parent="1" vertex="1" connectable="0">
          <mxGeometry x="371.00003998000994" y="630.6510344827586" width="88.07996001999004" height="48.70564717641176" as="geometry" />
        </mxCell>
        <mxCell id="snmEzDOHp0Ltsyz3abIs-2" value="" style="group" parent="snmEzDOHp0Ltsyz3abIs-1" vertex="1" connectable="0">
          <mxGeometry x="58.07996001999004" y="7.568965517241367" width="30" height="40" as="geometry" />
        </mxCell>
        <mxCell id="snmEzDOHp0Ltsyz3abIs-3" value="" style="verticalLabelPosition=bottom;sketch=0;aspect=fixed;html=1;verticalAlign=top;strokeColor=none;align=center;outlineConnect=0;shape=mxgraph.citrix.firewall;" parent="snmEzDOHp0Ltsyz3abIs-2" vertex="1">
          <mxGeometry width="22.901088499763375" height="28.395646000946527" as="geometry" />
        </mxCell>
        <mxCell id="snmEzDOHp0Ltsyz3abIs-4" value="" style="verticalLabelPosition=bottom;sketch=0;aspect=fixed;html=1;verticalAlign=top;strokeColor=none;align=center;outlineConnect=0;shape=mxgraph.citrix.firewall;" parent="snmEzDOHp0Ltsyz3abIs-2" vertex="1">
          <mxGeometry x="7.098911500236632" y="8" width="22.901088499763375" height="28.395646000946527" as="geometry" />
        </mxCell>
        <mxCell id="snmEzDOHp0Ltsyz3abIs-5" value="" style="group;fillColor=none;rotation=-90;" parent="snmEzDOHp0Ltsyz3abIs-1" vertex="1" connectable="0">
          <mxGeometry x="0.9495252373813514" y="1.3793103448275872" width="46.3768115942029" height="48.27586206896552" as="geometry" />
        </mxCell>
        <mxCell id="snmEzDOHp0Ltsyz3abIs-6" value="" style="rounded=0;whiteSpace=wrap;html=1;fillColor=none;rotation=-90;" parent="snmEzDOHp0Ltsyz3abIs-5" vertex="1">
          <mxGeometry x="8.695652173913043" y="-1.3793103448275863" width="28.985507246376812" height="48.27586206896552" as="geometry" />
        </mxCell>
        <mxCell id="snmEzDOHp0Ltsyz3abIs-7" value="" style="sketch=0;points=[[0.5,0,0],[1,0.5,0],[0.5,1,0],[0,0.5,0],[0.145,0.145,0],[0.8555,0.145,0],[0.855,0.8555,0],[0.145,0.855,0]];verticalLabelPosition=bottom;html=1;verticalAlign=top;aspect=fixed;align=center;pointerEvents=1;shape=mxgraph.cisco19.rect;prIcon=router;fillColor=#FAFAFA;strokeColor=#005073;rotation=-90;" parent="snmEzDOHp0Ltsyz3abIs-5" vertex="1">
          <mxGeometry x="12.318840579710145" y="25.517241379310345" width="20.689655172413794" height="20.689655172413794" as="geometry" />
        </mxCell>
        <mxCell id="snmEzDOHp0Ltsyz3abIs-8" value="" style="sketch=0;points=[[0.5,0,0],[1,0.5,0],[0.5,1,0],[0,0.5,0],[0.145,0.145,0],[0.8555,0.145,0],[0.855,0.8555,0],[0.145,0.855,0]];verticalLabelPosition=bottom;html=1;verticalAlign=top;aspect=fixed;align=center;pointerEvents=1;shape=mxgraph.cisco19.rect;prIcon=router;fillColor=#FAFAFA;strokeColor=#005073;rotation=-90;" parent="snmEzDOHp0Ltsyz3abIs-1" vertex="1">
          <mxGeometry x="13.268365817091478" y="-2.842170943040401e-14" width="20.689655172413794" height="20.689655172413794" as="geometry" />
        </mxCell>
        <mxCell id="hAbxW6g3J7Bc4GpDDjqM-1" value="Terminador TÃºnel HTTPS" style="rounded=0;whiteSpace=wrap;html=1;" parent="1" vertex="1">
          <mxGeometry x="817.7" y="240" width="120" height="30" as="geometry" />
        </mxCell>
        <mxCell id="8IY0u4yO5Yo8Mi12hmBT-55" value="" style="outlineConnect=0;dashed=0;verticalLabelPosition=bottom;verticalAlign=top;align=center;html=1;shape=mxgraph.aws3.classic_load_balancer;fillColor=#007FFF;gradientColor=none;rotation=90;" parent="1" vertex="1">
          <mxGeometry x="860" y="327" width="35" height="40" as="geometry" />
        </mxCell>
        <mxCell id="9gCZMNyoxsTTbr0R3SAC-1" value="" style="group" parent="1" vertex="1" connectable="0">
          <mxGeometry x="464" y="550.0028985507247" width="70" height="105.14492753623193" as="geometry" />
        </mxCell>
        <mxCell id="9gCZMNyoxsTTbr0R3SAC-2" value="" style="endArrow=none;html=1;rounded=0;entryX=0.5;entryY=1;entryDx=0;entryDy=0;" parent="9gCZMNyoxsTTbr0R3SAC-1" edge="1">
          <mxGeometry width="50" height="50" relative="1" as="geometry">
            <mxPoint x="65" y="105.14492753623193" as="sourcePoint" />
            <mxPoint x="35" y="46.79710144927532" as="targetPoint" />
            <Array as="points">
              <mxPoint x="35" y="76.99710144927536" />
            </Array>
          </mxGeometry>
        </mxCell>
        <mxCell id="9gCZMNyoxsTTbr0R3SAC-3" value="Sonda&lt;br&gt;SAT SARA" style="rounded=0;whiteSpace=wrap;html=1;" parent="9gCZMNyoxsTTbr0R3SAC-1" vertex="1">
          <mxGeometry width="70" height="45.79710144927536" as="geometry" />
        </mxCell>
        <mxCell id="NMI-0cj4nUhWK2GhbUs5-2" value="" style="endArrow=none;html=1;rounded=0;spacing=0;jumpSize=6;startSize=6;endSize=6;arcSize=20;" parent="1" edge="1">
          <mxGeometry width="50" height="50" relative="1" as="geometry">
            <mxPoint x="995.0000000000001" y="660" as="sourcePoint" />
            <mxPoint x="995" y="629" as="targetPoint" />
          </mxGeometry>
        </mxCell>
        <mxCell id="wD6VRvF6NGTKt72_i0ZK-1" value="LDAP" style="points=[[0.5,0,0],[0.765,0.48,0],[0.99,0.98,0],[0.5,1,0],[0.01,0.98,0],[0.235,0.48,0]];verticalLabelPosition=top;sketch=0;html=1;verticalAlign=bottom;aspect=fixed;align=center;pointerEvents=1;shape=mxgraph.cisco19.ldap;fillColor=#005073;strokeColor=none;labelPosition=center;" parent="1" vertex="1">
          <mxGeometry x="971" y="585.5" width="50" height="42.5" as="geometry" />
        </mxCell>
        <mxCell id="xSSa9G5jmZ57tHVmj7sf-1" value="FW UTM" style="text;html=1;align=center;verticalAlign=middle;whiteSpace=wrap;rounded=0;" parent="1" vertex="1">
          <mxGeometry x="410" y="600.65" width="60" height="30" as="geometry" />
        </mxCell>
      </root>
    </mxGraphModel>
  </diagram>
</mxfile>
